<svg width="154" height="173" viewBox="0 0 154 173" fill="none" xmlns="http://www.w3.org/2000/svg">
<path d="M93.1051 48.6634C91.3198 29.1547 90.4271 32.4923 89.4875 28.8726C88.5948 25.2529 79.997 17.5435 79.997 17.5435L79.1983 17.2614C78.7755 16.2742 76.5673 14.5349 76.5673 14.5349C76.0036 14.1588 75.6277 14.0648 75.6277 14.0648C74.0303 13.1716 72.198 12.7015 70.2247 12.7015C68.6273 12.7015 67.0299 13.0306 65.6205 13.5947C64.4459 11.9964 62.8485 10.8682 60.8753 10.3041C59.8417 10.022 58.808 9.83398 57.7744 9.83398C53.7809 9.83398 50.3982 12.0434 48.7069 15.5691C48.0961 15.5221 47.5323 15.4751 46.9215 15.4751C46.3108 15.4751 45.653 15.5221 45.0422 15.5691C42.0354 16.0392 39.5923 17.6375 37.9479 20.27C36.9143 21.9623 36.3035 23.8897 36.1156 26.0051C35.8807 29.0137 36.0216 31.4581 36.5854 33.7616C37.0083 35.5949 37.1492 37.5223 37.1962 39.7787C37.2902 44.2446 37.1962 48.8515 37.0553 53.3173C36.6324 52.9412 36.2096 52.6122 35.7398 52.3301C34.1424 51.2489 32.357 50.6848 30.3368 50.6848C29.773 50.6848 29.2562 50.7318 28.6924 50.8258C25.6856 51.2489 22.8196 53.5054 21.2692 56.702C19.8128 59.7105 19.7658 63.0012 21.2222 65.5397C21.3632 65.8217 21.5511 66.1978 21.6921 66.6209L21.739 66.7619C24.9338 74.6594 27.5179 82.839 29.3502 89.0442C29.867 90.7835 30.2428 92.6639 30.4777 95.0613C30.6187 96.2366 30.7127 97.5528 30.4777 98.775C29.726 102.536 28.6454 106.438 27.189 110.668C25.5446 115.369 23.4774 120.211 20.8934 125.429C16.524 134.361 11.4499 143.152 5.85904 151.613C3.8388 154.622 2.75821 157.63 2.57028 160.733C2.28839 164.917 4.12069 168.301 7.73833 170.229C8.58401 170.652 9.57064 171.075 10.6042 171.404C12.4366 171.968 14.3628 172.25 16.3831 172.25C16.665 172.25 16.9938 172.25 17.2757 172.203C29.1153 171.686 39.4044 169.336 48.6129 164.964C53.4521 162.707 57.6335 160.169 61.3451 157.254C66.936 152.929 71.7282 147.946 75.5807 142.493C75.7686 142.258 75.9566 141.976 76.1445 141.741C76.3324 141.459 76.5673 141.224 76.7553 140.942L79.0104 137.557L83.3798 136.335L98.9779 109.446C98.9309 109.399 94.8904 68.1722 93.1051 48.6634ZM90.3331 81.8048C90.2862 87.4929 89.9103 93.181 89.0176 98.8221C88.7357 100.514 88.3599 102.207 88.078 103.899C86.2457 114.1 82.9569 123.784 77.8829 132.81C77.601 133.327 77.366 133.891 77.0841 134.408C76.0975 135.818 75.1579 137.275 74.1712 138.686L74.1243 138.733C73.7014 139.344 73.2786 139.908 72.9027 140.519C69.0972 145.878 64.5399 150.532 59.3249 154.575C55.5663 157.489 51.4788 159.887 47.2034 161.908C37.666 166.374 27.5648 168.395 17.1348 168.818C16.8999 168.818 16.618 168.818 16.3831 168.818C14.7387 168.818 13.1413 168.583 11.5909 168.113C10.7922 167.878 10.0405 167.596 9.28874 167.173C6.7517 165.857 5.67111 163.647 5.85904 160.827C6.04697 158.053 7.12756 155.562 8.63099 153.305C14.2689 144.797 19.3899 135.959 23.9002 126.745C26.3433 121.809 28.5045 116.779 30.3368 111.609C31.7463 107.566 32.9678 103.476 33.7665 99.2451C34.0954 97.6938 34.0014 96.0955 33.8135 94.5442C33.5786 92.2878 33.2027 90.0784 32.545 87.916C30.2428 80.3005 27.7998 72.732 24.7929 65.3516C24.558 64.7875 24.3231 64.2234 24.0412 63.7063C21.974 60.0866 25.1687 54.4455 29.1153 53.8814C29.5381 53.8344 29.914 53.7874 30.2898 53.7874C31.3234 53.7874 32.357 54.0225 33.2497 54.4925C33.2497 54.4925 33.2497 54.4925 33.2967 54.4925C33.3437 54.4925 33.3906 54.5396 33.4376 54.5866H33.4846C33.5316 54.5866 33.5316 54.6336 33.5786 54.6336C33.6256 54.6806 33.6725 54.6806 33.6725 54.6806C33.6725 54.6806 33.7195 54.6806 33.7195 54.7276H33.7665C33.8135 54.7276 33.8135 54.7746 33.8605 54.7746C34.0484 55.0097 36.7264 58.1593 37.2902 64.0354C37.3841 64.8815 37.4311 65.8217 37.3841 66.7619V66.8089C37.4311 67.467 37.4311 68.1252 37.4311 68.7363C37.4781 71.1808 37.3372 73.5782 37.1022 75.9757C39.2164 79.8304 41.1427 75.2705 41.1427 75.2705C41.3776 72.497 41.4716 69.7235 41.3776 66.9029C41.3776 66.9029 41.0018 48.4754 40.391 38.6505V38.6035C40.297 37.0992 40.2031 35.783 40.1091 34.7958C40.1091 34.7488 40.1091 34.7018 40.1091 34.6547C40.0151 34.0436 39.9212 33.3855 39.7332 32.7744C39.2164 30.565 39.1695 28.3085 39.3574 26.0521C39.4514 24.5478 39.8742 23.0905 40.6729 21.7743C41.7535 20.0349 43.3039 18.9537 45.4181 18.7187C45.9349 18.6717 46.4047 18.6247 46.8746 18.6247C47.0625 18.6247 47.2504 18.6247 47.4383 18.6247C47.4853 18.6717 48.6599 19.4708 48.425 21.2102C47.7202 27.1333 47.3444 33.0564 47.4853 38.9796C47.6733 47.7703 47.8612 56.5609 48.0491 65.3516C48.0491 65.9627 48.0961 66.5739 48.237 67.138C48.425 68.0311 49.2237 68.6423 50.0693 68.6423C50.1163 68.6423 50.1633 68.6423 50.2103 68.6423C51.009 68.5952 51.7137 67.8901 51.9017 67.044C51.9956 66.6679 51.9486 66.2918 51.9486 65.9157C51.8547 59.3815 51.8077 52.8472 51.6198 46.313C51.4788 42.1292 51.3379 37.8984 51.4318 33.7146C51.5258 29.4838 51.9017 25.2999 52.4654 21.1161C52.5124 20.7401 52.5594 20.505 52.4654 20.317C52.4654 20.317 52.0426 16.3682 53.593 14.3939C54.7676 13.5007 56.177 12.9836 57.7275 12.9836C58.0563 12.9836 58.3852 12.9836 58.7141 13.0776C58.7141 13.0776 62.1438 14.4409 61.58 18.2956C61.58 18.4366 61.533 18.5777 61.486 18.7187C61.439 19.0948 61.4391 19.4708 61.3921 19.8469C60.4994 26.0991 60.3585 32.3983 60.4994 38.7445C60.6404 44.6677 60.7343 50.5908 60.8283 56.5609C60.8753 59.6635 60.9692 62.7191 61.0162 65.8217C61.0162 66.2918 61.0162 66.7149 61.1102 67.185C61.3451 68.0782 62.0968 68.6893 62.9425 68.6893C62.9895 68.6893 63.0364 68.6893 63.0834 68.6893C64.0231 68.5952 64.7278 67.8901 64.8218 66.9029C64.8688 66.4328 64.8218 66.0098 64.8218 65.5397C64.6808 58.3943 64.5399 51.2489 64.3989 44.1506C64.305 39.7317 64.164 35.3129 64.305 30.847C64.3989 27.6034 64.6808 24.4068 65.0567 21.2102C65.1037 20.7401 65.2446 20.27 65.2916 19.7999C65.3386 19.5649 65.9024 17.4965 67.2179 16.4623C68.0636 16.1332 69.0972 15.9922 70.1308 15.9922C70.2717 15.9922 70.4596 15.9922 70.6006 15.9922C70.7415 15.9922 70.9295 15.9922 71.0704 16.0392C71.2114 16.0392 71.3993 16.0862 71.5402 16.0862C71.6342 16.0862 71.7752 16.1332 71.8691 16.1332C71.9631 16.1332 72.104 16.1802 72.198 16.2272C72.3859 16.2742 72.6208 16.3212 72.8088 16.4152H72.8557C72.9497 16.4152 73.0437 16.4623 73.0907 16.5093C73.1376 16.5093 73.2316 16.5563 73.2786 16.6033C73.4195 16.6503 73.5605 16.6973 73.6544 16.7913C73.9363 16.9323 74.2182 17.0734 74.4531 17.2614C74.4531 17.2614 74.4531 17.2614 74.5001 17.3084C74.5941 17.3554 74.688 17.4024 74.735 17.4965C74.829 17.5435 74.923 17.6375 75.0169 17.6845C75.1109 17.7315 75.2049 17.8255 75.2518 17.9195C75.3458 18.0136 75.3928 18.0606 75.4868 18.1546C75.5807 18.2486 75.6747 18.3426 75.7217 18.4366C75.7686 18.4836 75.8626 18.5777 75.9096 18.6717C75.9566 18.7657 76.0036 18.8127 76.0975 18.9067C76.2855 19.1418 76.4264 19.3768 76.5673 19.6589C76.6143 19.7529 76.6613 19.8469 76.7083 19.9409C77.2251 21.4452 77.554 23.0435 77.6479 24.6418C77.413 24.7829 77.1311 24.9709 76.8962 25.1119C76.7083 25.2059 76.5204 25.347 76.3324 25.488C76.3324 25.488 76.2854 25.488 76.2854 25.535C76.0975 25.676 75.9096 25.77 75.7217 25.9111C75.6747 25.9581 75.6277 26.0051 75.5807 26.0051C75.3928 26.1461 75.2049 26.2871 75.0639 26.4282C75.0169 26.4752 74.9699 26.4752 74.9699 26.5222C74.782 26.6632 74.6411 26.8042 74.4531 26.9453C74.3122 27.0863 74.1712 27.2273 74.0303 27.3683C73.9363 27.4624 73.8894 27.5564 73.7954 27.6034C73.7014 27.6974 73.5605 27.8384 73.4665 27.9795C73.4195 28.0265 73.3725 28.0735 73.3256 28.1675C73.1846 28.3555 73.0437 28.4966 72.9027 28.6846C72.8557 28.7316 72.8557 28.7786 72.8088 28.8256C72.7148 28.9667 72.5739 29.1077 72.4799 29.2487C72.4329 29.3427 72.3859 29.3897 72.3389 29.4838C72.198 29.6718 72.104 29.8598 71.9631 30.0479C71.9161 30.0949 71.9161 30.1419 71.8691 30.1889C71.4933 30.847 71.2114 31.5051 70.9295 32.2573C70.2247 34.2787 69.8489 36.3001 69.8959 38.4625C70.0838 48.1463 70.2717 57.8302 70.4596 67.514C70.4596 68.1722 70.4596 68.8773 70.5536 69.5354C70.6946 70.5696 71.3993 71.1807 72.3389 71.2748C72.3859 71.2748 72.4329 71.2748 72.5269 71.2748C72.6208 71.2748 72.7618 71.2748 72.8557 71.2748C73.3256 71.1807 73.7484 70.9927 74.0303 70.6166C74.0773 70.5696 74.0773 70.5696 74.1243 70.5226C74.2182 70.4286 74.2652 70.2876 74.3122 70.1936C74.3592 70.0995 74.4062 69.9585 74.4062 69.8645C74.4062 69.8175 74.4531 69.7235 74.4531 69.6765C74.5471 69.2534 74.5001 68.7833 74.5001 68.3132C74.4531 65.5867 74.3592 62.9072 74.3122 60.2276C74.1712 53.2233 74.1712 46.266 73.8894 39.2616C73.8424 38.4625 73.8894 37.6163 73.9833 36.8642C73.9833 36.7231 74.0303 36.5351 74.0303 36.3941C74.0303 36.3001 74.0773 36.206 74.0773 36.065C74.0773 35.924 74.1243 35.783 74.1243 35.6889C74.1243 35.5949 74.1712 35.4539 74.1712 35.3599C74.1712 35.2659 74.2182 35.1248 74.2652 35.0308C74.3122 34.9368 74.3122 34.7958 74.3592 34.7018C74.4062 34.6077 74.4062 34.4667 74.4531 34.3727C74.5001 34.1847 74.5471 33.9966 74.6411 33.8086C74.688 33.6676 74.735 33.5265 74.782 33.3855C74.829 33.2915 74.876 33.1505 74.923 33.0564C74.9699 32.9624 75.0169 32.8684 75.0639 32.7274C75.1109 32.6334 75.1579 32.5393 75.2048 32.3983C75.2518 32.2573 75.3458 32.1163 75.4398 32.0222C75.4867 31.9282 75.5807 31.7872 75.6277 31.6932C75.7686 31.4581 75.9566 31.2231 76.1445 30.988C76.2385 30.894 76.2854 30.8 76.3794 30.706C76.4734 30.612 76.5204 30.518 76.6143 30.4239C76.7083 30.3299 76.8023 30.2359 76.8492 30.1419C76.9902 30.0009 77.1781 29.8128 77.366 29.6718C77.46 29.5778 77.554 29.4838 77.6479 29.4367C77.7419 29.3427 77.8359 29.2957 77.9298 29.2017C78.0238 29.1077 78.1178 29.0607 78.2587 28.9667C78.3527 28.8726 78.4466 28.8256 78.5876 28.7316C78.6815 28.6846 78.7285 28.6376 78.8225 28.5436C79.0104 28.4496 80.7018 27.6034 84.1315 28.2615C84.2724 28.3555 84.4134 28.4025 84.5543 28.4966C84.6953 28.5906 84.8362 28.6846 84.9772 28.7786C85.0241 28.8256 85.1181 28.8726 85.1651 28.9196C85.2121 28.9667 85.306 29.0137 85.353 29.0607C85.541 29.2017 85.6819 29.3897 85.8229 29.6248C85.8698 29.7188 85.9638 29.8128 86.0108 29.9068C86.1517 30.1419 86.3397 30.4239 86.4336 30.706C86.4806 30.894 86.5746 31.0821 86.6215 31.2701C86.7625 31.6932 86.9034 32.1163 87.0444 32.5393C87.1384 32.8214 87.1853 33.1034 87.2793 33.3855C87.3263 33.6676 87.4202 33.9496 87.4672 34.2317C87.5142 34.4667 87.5612 34.7018 87.6082 34.9368C87.6082 34.9838 87.6552 35.0778 87.6552 35.1248C87.7021 35.3599 87.7491 35.5949 87.7961 35.83C87.937 36.6761 88.125 37.5693 88.2189 38.4625C88.2659 38.7445 88.3129 39.0266 88.3129 39.3086C88.3599 39.5907 88.4069 39.8257 88.4069 40.1078C88.5008 40.9069 88.5948 41.7061 88.6888 42.5052C88.7827 43.3984 88.7357 44.2916 89.1116 45.1378C89.3935 50.7318 89.6284 56.3259 89.9103 61.92C90.0043 64.2234 90.0512 66.5269 90.1452 68.8773C90.0982 69.3944 90.0513 69.9115 90.0513 70.4286C90.3331 74.1423 90.3801 77.997 90.3331 81.8048Z" fill="#B69349"/>
<path d="M151.739 163.458C151.504 165.621 150.423 167.501 148.591 169.147C147.181 170.369 145.49 171.215 143.376 171.826C141.685 172.296 139.805 172.578 137.691 172.578H137.221C133.791 172.578 130.174 172.249 125.617 171.544C120.12 170.698 114.905 169.288 110.065 167.454C100.246 163.694 91.6954 158.052 84.6011 150.672C81.6882 147.663 79.1041 144.467 76.802 141.176C76.755 141.082 76.7081 140.988 76.6141 140.941L78.8692 137.557L83.2386 136.334L98.8367 109.445C98.8367 109.445 94.7962 68.2182 93.0109 48.7095C91.2256 29.2008 90.3329 32.5384 89.3933 28.9187C88.5006 25.299 79.9028 17.5895 79.9028 17.5895L79.1041 17.3075C78.6813 16.3203 76.4731 14.581 76.4731 14.581L76.943 14.2519C78.8223 12.8886 81.1244 12.1835 83.5205 12.1835C84.883 12.1835 86.1985 12.4185 87.467 12.8416L88.0308 13.0297L88.4536 12.5596C89.2993 11.6194 90.3329 10.8672 91.5544 10.3031C92.9169 9.69202 94.3734 9.36296 95.9238 9.36296C101.421 9.26894 103.488 13.2647 103.817 14.4399C103.817 14.4399 103.817 14.4399 103.817 14.4869L104.052 15.2861L104.897 15.1451C105.508 15.0511 106.166 15.004 106.871 15.004C107.481 15.004 108.045 15.0511 108.703 15.0981C112.321 15.5211 115.046 17.4955 116.69 20.7861C117.583 22.5255 118.052 24.1708 118.193 25.8161C118.381 27.9785 118.475 31.2222 117.583 34.5128C117.395 35.1709 117.301 35.829 117.301 36.4872C117.254 37.8974 117.254 39.3077 117.254 40.718V40.812L116.831 52.4232L118.334 51.53C119.932 50.5899 121.764 50.0728 123.643 50.0728C127.073 50.0728 130.174 51.7651 132.1 54.7737C132.993 56.1369 133.557 57.4532 133.885 58.8164C134.402 60.9789 134.261 62.9532 133.463 64.7396C131.254 69.6285 129.61 74.6585 127.872 80.0175L127.59 80.8167C127.167 82.1329 126.697 83.4492 126.274 84.7654C125.053 88.2911 124.348 91.2527 123.972 94.0732C123.737 96.1416 123.737 97.8339 124.066 99.3852C125.1 104.838 126.932 110.479 129.986 117.672C133.04 124.911 136.845 132.339 141.685 140.471C143.329 143.245 145.819 147.381 148.497 151.377C149.718 153.211 150.658 155.326 151.316 157.535C151.88 159.369 152.021 161.249 151.739 163.458Z" fill="#F2F3F8"/>
<path d="M148.027 163.036C147.886 164.353 147.135 165.387 146.148 166.28C145.067 167.22 143.752 167.831 142.389 168.207C140.886 168.631 139.288 168.819 137.691 168.819C133.839 168.866 130.033 168.395 126.274 167.831C121.2 167.032 116.267 165.763 111.475 163.977C102.266 160.451 94.2325 155.233 87.4201 148.135C84.2723 144.891 81.4533 141.365 79.0103 137.558C79.2921 137.134 79.574 136.758 79.8559 136.335L79.9969 136.147L80.0908 135.912C80.1848 135.724 80.2788 135.536 80.3727 135.348C80.5137 135.019 80.6546 134.737 80.7956 134.502C85.8697 125.382 89.4403 115.322 91.3666 104.557C91.4606 103.899 91.6015 103.241 91.7424 102.536C91.9304 101.502 92.1653 100.467 92.3062 99.3862C93.1519 94.0742 93.6217 88.3391 93.6687 81.8989C93.7157 79.4074 93.7157 76.8689 93.6687 74.4244C93.6687 73.0612 93.6687 71.6979 93.6687 70.3817C93.6687 70.1466 93.6687 69.8176 93.7157 69.5355C93.7157 69.3475 93.7627 69.1594 93.7627 68.9714V68.8304V68.6893C93.7157 67.9842 93.7157 67.2791 93.7157 66.5739C93.6687 64.9756 93.6217 63.3303 93.5748 61.732C93.4338 58.6294 93.2929 55.5268 93.1519 52.4242C93.2459 47.2062 93.3398 41.9882 93.4808 36.7232C93.5278 34.1847 93.4808 31.6933 93.3398 29.1548C93.1519 25.7701 92.87 22.3385 92.4472 18.9538C92.4002 18.6718 92.4002 18.4837 92.3532 18.3897C91.9774 16.8854 90.8498 15.9922 90.8498 15.9922C91.0847 15.5692 91.4136 15.1931 91.7424 14.911C92.2123 14.4409 92.7761 14.0649 93.3868 13.7828C93.3868 13.7828 93.4338 13.7828 93.4338 13.7358C96.5816 12.3255 100.246 14.2999 100.951 17.6846C101.562 20.8342 102.079 24.8769 102.173 25.7701C102.173 25.8641 102.173 25.9582 102.173 25.9582C102.36 27.9795 102.454 30.0009 102.548 32.0223C102.736 35.2189 102.736 38.5096 102.595 41.7062C102.36 45.7019 102.36 49.6507 102.266 53.6465C102.173 57.6422 102.313 61.638 102.032 65.5868C101.985 66.1979 102.032 66.809 102.173 67.3731C102.36 68.1252 103.065 68.6894 103.77 68.7364C104.475 68.7834 105.179 68.3133 105.555 67.5611C105.884 66.856 105.837 66.1038 105.837 65.3517C105.931 61.3089 105.978 57.2191 106.025 53.1764C106.119 48.0054 106.26 42.8344 106.354 37.6164C106.448 33.2916 106.166 28.9667 105.696 24.6419V24.5479C105.602 23.6077 105.461 22.6205 105.367 21.6803C105.32 21.3513 105.273 21.1162 105.273 20.9282L105.038 19.0478C106.166 18.7658 107.247 18.7658 108.421 18.9068C110.817 19.1889 112.462 20.4111 113.495 22.5265C114.059 23.6547 114.482 24.8769 114.576 26.1932C114.764 28.6847 114.764 31.1762 114.059 33.5736C113.777 34.5138 113.636 35.501 113.636 36.4412C113.589 37.8514 113.589 39.3087 113.589 40.719V40.766L112.697 65.6338V65.6808C112.697 65.8218 112.697 65.9628 112.697 66.1509C112.697 66.3859 112.697 66.621 112.697 66.856V66.903C112.697 67.044 112.697 67.1381 112.697 67.2791V67.6552C112.697 68.4073 112.697 69.2064 112.697 69.9586C112.65 71.4629 112.697 72.9202 112.79 74.4244C112.837 74.9885 112.884 75.5057 112.931 76.0228C112.931 76.2578 113.072 77.0569 113.213 77.8561C113.401 78.8433 114.482 79.3604 115.328 78.8433C115.328 78.8433 115.938 78.5612 116.079 78.4202C116.596 77.9031 116.737 77.527 116.878 76.9159C116.831 76.7279 116.831 76.4928 116.831 76.3048C116.784 75.7407 116.69 74.7535 116.643 74.1894C116.596 73.6723 116.596 73.1552 116.549 72.6381C116.502 72.027 116.502 71.4159 116.455 70.8518C116.455 70.7577 116.455 70.6637 116.455 70.5697C116.408 69.1594 116.549 67.7492 116.549 66.3389C116.549 65.8218 116.784 65.2107 116.737 64.6936C117.16 62.3901 117.912 59.0995 118.71 56.0909C119.039 55.7619 119.415 55.4328 119.838 55.1507C122.469 53.2234 126.744 53.1764 129.093 56.7961C129.657 57.6892 130.127 58.6294 130.409 59.6636C130.691 60.8388 130.738 62.0141 130.174 63.1893C127.214 69.7706 125.147 76.7279 122.845 83.5442C121.717 86.8348 120.824 90.1255 120.402 93.6041C120.12 95.7665 120.073 97.9289 120.496 100.091C121.764 106.673 124.066 112.972 126.65 119.13C130.033 127.169 134.12 134.878 138.584 142.352C140.792 146.113 143.094 149.827 145.49 153.447C146.524 154.998 147.275 156.737 147.839 158.571C148.168 160.075 148.168 161.532 148.027 163.036Z" fill="#EAEBF0"/>
<path d="M147.745 28.4022C147.605 28.6373 147.511 28.8253 147.37 29.0133C147.276 29.1074 147.135 29.2484 147.041 29.2954C143.987 31.0817 140.933 32.8211 137.879 34.5604C136.94 35.0775 136.564 34.9835 136.047 34.0903C135.953 33.9493 135.906 33.8083 135.812 33.7142C135.154 32.7271 135.154 31.9749 136.376 31.3168C139.195 29.7655 141.967 28.1202 144.739 26.4749C145.067 26.2868 145.396 26.1458 145.772 26.0048C145.96 25.9578 146.242 26.0048 146.43 26.0988C147.135 26.7569 147.464 27.5561 147.745 28.4022Z" fill="#BF9D56"/>
<path d="M130.08 1.84139C130.033 2.02943 129.986 2.26447 129.892 2.45251C129.516 3.11063 129.14 3.72175 128.717 4.33287C127.12 6.68332 125.569 9.08078 123.972 11.3842C123.455 12.1834 122.985 12.2304 122.281 11.8073C121.905 11.5723 121.529 11.3372 121.153 11.0552C120.636 10.6791 120.542 10.256 120.824 9.69189C121.012 9.31582 121.294 8.93975 121.529 8.56368C123.079 6.26024 124.583 3.9568 126.133 1.65335C126.415 1.23027 126.697 0.760184 127.073 0.384112C127.308 0.102057 127.684 -0.0859786 128.059 0.102057C128.764 0.384112 129.375 0.760184 129.892 1.3713C129.986 1.51233 129.986 1.65335 130.08 1.84139Z" fill="#BF9D56"/>
<path d="M31.1356 12.0896C30.8538 11.9956 30.6188 11.9486 30.4779 11.8076C30.196 11.5725 29.9611 11.2435 29.7262 10.9614C27.9409 8.2819 26.1085 5.60239 24.3232 2.92288C24.1353 2.68783 23.9943 2.40578 23.9004 2.12372C23.7594 1.84167 23.8534 1.5126 24.0413 1.27756C24.5581 0.713452 25.1689 0.290371 25.8736 0.0553256C26.2495 -0.0857015 26.6254 0.0553256 26.9072 0.33738C27.1891 0.666443 27.471 1.04251 27.7059 1.41859C29.4443 4.05109 31.2296 6.63659 32.968 9.26909C33.5317 10.1623 33.4848 10.5853 32.6391 11.1495C32.2162 11.5725 31.6525 11.8076 31.1356 12.0896Z" fill="#D2D2D3"/>
<path d="M18.6851 32.4916C18.6851 33.1967 17.7924 34.654 17.1817 34.842C16.8058 34.9831 16.4769 34.795 16.1011 34.607C14.3627 33.6198 12.5774 32.5856 10.8391 31.5984C9.61751 30.8933 8.34899 30.1881 7.17444 29.436C6.04686 28.7309 6.04686 28.4488 6.70462 27.2736C6.84556 26.9915 6.98651 26.7565 7.17444 26.5214C7.5503 26.0043 7.97314 25.9103 8.53692 26.1454C8.95976 26.3334 9.33562 26.5214 9.71148 26.7565C12.3425 28.3078 15.0205 29.8121 17.6515 31.3634C18.1683 31.5984 18.6381 31.8335 18.6851 32.4916Z" fill="#D2D2D3"/>
<path d="M144.175 59.3342C143.611 59.2402 143.188 58.9581 143 57.8299C142.765 56.5607 142.812 56.1376 143.423 55.8555C143.705 55.7145 143.987 55.6205 144.269 55.5735C146.853 55.0094 149.39 54.4452 151.974 53.9282C153.101 53.6931 153.477 53.9282 153.759 55.0564C153.853 55.4794 153.947 55.9495 153.994 56.3726C154.041 56.7957 153.806 57.1718 153.43 57.2188C150.282 57.9709 147.229 58.6291 144.175 59.3342Z" fill="#BF9D56"/>
<path d="M9.28873 59.146C7.22151 58.7229 4.82542 58.1588 2.42932 57.6417C2.19441 57.5947 2.00648 57.5477 1.77157 57.4537C1.20778 57.2657 0.456065 57.4537 0.174171 56.7956C-0.201687 55.9494 0.0802065 55.0562 0.550029 54.2571C0.737958 53.928 1.11382 53.787 1.53666 53.834C1.9595 53.881 2.42932 53.975 2.85216 54.0691C5.10731 54.5391 7.36246 55.0092 9.61761 55.5263C11.262 55.9024 11.4029 56.1375 11.0271 57.8768C10.9801 58.0178 10.9801 58.1588 10.9331 58.2999C10.6982 59.052 10.3693 59.24 9.28873 59.146Z" fill="#D2D2D3"/>
<path d="M140.134 76.6808C142.342 77.1038 144.691 77.5739 147.041 78.044C147.745 78.1851 147.98 78.6551 147.839 79.4073C147.745 79.8304 147.651 80.3005 147.51 80.7235C147.322 81.3347 146.9 81.6167 146.336 81.5227C143.987 81.0526 141.638 80.5825 139.288 80.1124C138.631 79.9714 138.443 79.5953 138.49 78.9842C138.537 78.5141 138.584 78.091 138.678 77.668C138.866 76.9158 139.241 76.6338 140.134 76.6808Z" fill="#BF9D56"/>
<path d="M7.59744 81.5223C7.03365 81.5693 6.65779 81.3342 6.51685 80.8641C6.3759 80.5351 6.28193 80.159 6.23495 79.7829C5.95306 78.5607 6.18797 78.1376 7.45649 77.9026C9.57069 77.4795 11.6849 77.0564 13.7991 76.6803C14.7857 76.4923 15.1616 76.8214 15.3495 77.8086C15.3965 78.0436 15.4435 78.2316 15.4435 78.4667C15.5844 79.6889 15.4435 79.971 14.3159 80.206C12.1077 80.6761 9.8056 81.0992 7.59744 81.5223Z" fill="#D2D2D3"/>
<path d="M90.3328 81.8035C90.2388 87.4916 89.91 93.1797 88.9703 98.8207C88.6884 100.513 88.3126 102.205 88.0307 103.898C86.1984 114.099 82.9096 123.783 77.8355 132.808C77.5536 133.325 77.3187 133.889 77.0368 134.407C76.0502 135.817 75.1105 137.274 74.1239 138.731L74.0769 138.778C73.6541 139.39 73.2312 139.954 72.8554 140.565C69.0498 145.924 64.4926 150.625 59.2775 154.62C55.5189 157.535 51.4315 159.932 47.1561 161.954C37.6657 166.467 27.5645 168.441 17.1344 168.911C16.8995 168.911 16.6176 168.911 16.3827 168.911C14.7383 168.911 13.1409 168.676 11.5905 168.206C10.7918 167.971 10.0401 167.642 9.2884 167.266C6.75136 165.95 5.67077 163.74 5.8587 160.967C6.04662 158.193 7.12722 155.702 8.63065 153.445C14.2685 144.937 19.3896 136.099 23.8999 126.885C26.343 121.949 28.5041 116.919 30.3365 111.748C31.7459 107.705 32.9675 103.616 33.7662 99.3849C34.095 97.8336 34.0011 96.2353 33.8131 94.684C33.5782 92.4275 33.2024 90.2181 32.5446 88.0557C30.2425 80.4402 27.7994 72.8718 24.7925 65.4914C24.5576 64.9272 24.3227 64.3631 24.0408 63.846C21.9736 60.2263 25.1684 54.5853 29.1149 54.0212C29.4908 53.9742 29.9136 53.9271 30.2895 53.9271C31.3231 53.9271 32.3567 54.1622 33.2494 54.6323C33.2494 54.6323 33.2494 54.6323 33.2963 54.6323C33.3433 54.6793 33.3903 54.6793 33.4373 54.7263H33.4843C33.5312 54.7263 33.5312 54.7733 33.5782 54.7733C33.6252 54.8203 33.6252 54.8203 33.6722 54.8203C33.6722 54.8203 33.7192 54.8203 33.7192 54.8673H33.7662C33.8131 54.8673 33.8131 54.9143 33.8601 54.9143C34.0481 55.1494 36.726 58.299 37.2898 64.1281C37.3838 64.9743 37.4308 65.9144 37.3838 66.8546V66.9016C37.4308 67.5598 37.4308 68.2179 37.4308 68.829C37.4778 70.7564 37.3838 72.7307 37.2428 74.6581C37.2428 74.7991 37.2428 74.9402 37.1959 75.0812C37.1019 75.9274 37.6187 76.7735 38.4174 77.0556C39.6389 77.5257 41.0014 76.7265 41.0954 75.4103C41.3303 72.6367 41.4243 69.8162 41.3303 66.9486C41.3303 66.9486 40.9544 48.5211 40.3437 38.6962V38.6492C40.2497 37.1449 40.1557 35.8287 40.0618 34.8415C40.0618 34.7945 40.0618 34.7475 40.0618 34.7005C39.9678 34.0423 39.8739 33.4312 39.6859 32.8201C39.1691 30.6107 39.1691 28.3542 39.3101 26.0978C39.404 24.5935 39.8269 23.1362 40.6256 21.82C41.7062 20.0806 43.2566 18.9994 45.3708 18.7644C45.8876 18.7174 46.3574 18.6704 46.8272 18.6704C47.0152 18.6704 47.2031 18.6704 47.391 18.6704C47.438 18.7174 48.6126 19.5165 48.3776 21.2559C47.6729 27.179 47.2971 33.1021 47.438 39.0253C47.6259 47.816 47.8139 56.6067 48.0018 65.3973C48.0018 66.0085 48.0488 66.6196 48.1897 67.1837C48.3776 68.0769 49.1763 68.688 50.022 68.688C50.069 68.688 50.116 68.688 50.163 68.688C50.9617 68.641 51.6664 67.9358 51.8543 67.0897C51.9483 66.7136 51.9013 66.3375 51.9013 65.9614C51.8073 59.4272 51.7604 52.8929 51.5724 46.3587C51.4315 42.1279 51.2905 37.9441 51.3845 33.7603C51.4785 29.5295 51.8543 25.3457 52.4181 21.1619C52.4651 20.7858 52.5121 20.5507 52.4181 20.3627C52.4181 20.3627 51.9953 16.4139 53.5457 14.4396C54.7202 13.5464 56.1297 13.0293 57.6801 13.0293C58.009 13.0293 58.3379 13.0763 58.6668 13.1233C58.6668 13.1233 62.0965 14.5336 61.5327 18.3413C61.5327 18.4823 61.4857 18.6234 61.4387 18.7644C61.3917 19.1405 61.3917 19.5165 61.3447 19.8926C60.4521 26.1448 60.3111 32.444 60.4521 38.7902C60.593 44.7134 60.687 50.6365 60.781 56.6067C60.8279 59.6622 60.9219 62.7648 60.9689 65.8204C60.9689 66.2905 60.9689 66.7136 61.0629 67.1837C61.2508 68.0769 62.0495 68.688 62.8952 68.688C62.9421 68.688 62.9891 68.688 63.0361 68.688C63.9757 68.594 64.6805 67.8888 64.7744 66.9016C64.8214 66.4315 64.7744 66.0085 64.7744 65.5384C64.6335 58.393 64.4456 51.2476 64.3516 44.1493C64.2576 39.7304 64.1167 35.2646 64.2576 30.8457C64.3516 27.6021 64.6335 24.4055 65.0094 21.2089C65.0563 20.7388 65.1973 20.2687 65.2443 19.7986C65.2443 19.7986 65.2443 19.7986 65.2443 19.7516C65.2913 19.5165 65.855 17.4481 67.1705 16.4139C68.0162 16.0849 69.0498 15.9439 70.0834 15.9439C70.2244 15.9439 70.4123 15.9439 70.5533 15.9439C70.6942 15.9439 70.8821 15.9439 71.0231 15.9909C71.164 15.9909 71.352 16.0379 71.4929 16.0379C71.5869 16.0379 71.7278 16.0849 71.8218 16.0849C71.9157 16.0849 72.0567 16.1319 72.1507 16.1789C72.3386 16.2259 72.5735 16.2729 72.7614 16.3669H72.8084C72.9024 16.3669 72.9963 16.4139 73.0433 16.461C73.0903 16.461 73.1843 16.508 73.2312 16.555C73.3722 16.602 73.5131 16.649 73.6071 16.743C73.889 16.884 74.1709 17.0251 74.4058 17.2131C74.4058 17.2131 74.4058 17.2131 74.4528 17.2601C74.5468 17.3071 74.6407 17.3541 74.7347 17.4481C74.8286 17.4952 74.9226 17.5892 74.9696 17.6362C75.0166 17.6832 75.1575 17.7772 75.2045 17.8712C75.2985 17.9652 75.3924 18.0123 75.4394 18.1063C75.5334 18.2003 75.6273 18.2943 75.6743 18.3883C75.7213 18.4823 75.8153 18.5294 75.8623 18.6234C75.9092 18.6704 75.9562 18.7644 76.0502 18.8584C76.2381 19.0935 76.3791 19.3285 76.52 19.6106C76.567 19.7046 76.614 19.7986 76.661 19.8926C77.1778 21.3969 77.5066 22.9952 77.6006 24.5935C77.3657 24.7345 77.0838 24.9226 76.8489 25.0636C76.661 25.1576 76.473 25.2986 76.2851 25.4397C76.2851 25.4397 76.2851 25.4397 76.2381 25.4867C76.0502 25.6277 75.8623 25.7217 75.6743 25.8628C75.6273 25.9098 75.5804 25.9568 75.5334 25.9568C75.3455 26.0978 75.1575 26.2388 75.0166 26.3799C74.9696 26.4269 74.9226 26.4269 74.9226 26.4739C74.7347 26.6149 74.5937 26.7559 74.4058 26.897C74.2649 27.038 74.1239 27.179 73.983 27.32C73.889 27.4141 73.842 27.4611 73.7481 27.5551C73.6541 27.6491 73.5131 27.7901 73.4192 27.9312C73.3722 27.9782 73.3252 28.0252 73.2782 28.0722C73.1373 28.2602 72.9963 28.4012 72.8554 28.5893C72.8084 28.6363 72.8084 28.6833 72.7614 28.7303C72.6675 28.8713 72.5265 29.0124 72.4326 29.2004C72.3856 29.2944 72.3386 29.3414 72.2916 29.4354C72.1507 29.6235 72.0567 29.8115 71.9157 29.9995C71.8688 30.0466 71.8688 30.0936 71.8218 30.1406C71.4459 30.7987 71.164 31.4568 70.8821 32.209C70.1774 34.2304 69.8015 36.2518 69.8485 38.4142C70.0365 48.098 70.2244 57.7819 70.4123 67.4657C70.4123 68.1239 70.4123 68.829 70.5063 69.4871C70.6472 70.5213 71.352 71.1324 72.2916 71.2265C72.3386 71.2265 72.3856 71.2265 72.4795 71.2265C72.5735 71.2265 72.7144 71.2265 72.8084 71.2265C73.2782 71.1324 73.7011 70.9444 73.983 70.5683C74.03 70.5213 74.03 70.5213 74.0769 70.4743C74.1709 70.3803 74.2179 70.2393 74.2649 70.1453C74.3118 70.0512 74.3588 69.9102 74.3588 69.8162C74.3588 69.7692 74.4058 69.6752 74.4058 69.6282C74.4998 69.2051 74.4528 68.735 74.4528 68.2649C74.4058 65.5384 74.3118 62.8589 74.2649 60.1793C74.1239 53.175 74.1239 46.2177 73.842 39.2133C73.795 38.4142 73.842 37.568 73.936 36.8159C73.936 36.6748 73.983 36.4868 73.983 36.3458C73.983 36.2517 74.0299 36.1577 74.0299 36.0167C74.0299 35.8757 74.0769 35.7346 74.0769 35.6406C74.0769 35.5466 74.1239 35.4056 74.1239 35.3116C74.1239 35.2176 74.1709 35.0765 74.2179 34.9825C74.2649 34.8885 74.2649 34.7475 74.3118 34.6534C74.3588 34.5594 74.3588 34.4184 74.4058 34.3244C74.4528 34.1363 74.4998 33.9483 74.5937 33.7603C74.6407 33.6192 74.6877 33.4782 74.7347 33.3372C74.7817 33.2432 74.8286 33.1021 74.8756 33.0081C74.9226 32.9141 74.9696 32.8201 75.0166 32.6791C75.0636 32.585 75.1105 32.491 75.1575 32.35C75.2045 32.209 75.2985 32.0679 75.3924 31.9739C75.4394 31.8799 75.5334 31.7389 75.6273 31.6449C75.7683 31.4098 75.9562 31.1748 76.1441 30.9397C76.2381 30.8457 76.2851 30.7517 76.3791 30.6577C76.473 30.5637 76.52 30.4696 76.614 30.3756C76.7079 30.2816 76.8019 30.1876 76.8489 30.0936C76.9898 29.9055 77.1778 29.7645 77.3657 29.6235C77.4597 29.5295 77.5536 29.4825 77.6476 29.3884C77.7416 29.2944 77.8355 29.2474 77.9295 29.1534C78.0234 29.0594 78.1174 29.0124 78.2584 28.9183C78.3523 28.8243 78.4463 28.7773 78.5872 28.6833C78.6812 28.6363 78.7282 28.5893 78.8221 28.4953C79.0101 28.4012 80.7014 27.5551 84.1311 28.2132C84.2721 28.2602 84.413 28.3542 84.554 28.4483C84.6949 28.5423 84.8359 28.6363 84.9298 28.7303C84.9768 28.7773 85.0708 28.8243 85.1178 28.8713C85.1647 28.9183 85.2587 28.9654 85.3057 29.0594C85.4936 29.2004 85.6346 29.3884 85.7755 29.5765C85.8225 29.6705 85.9165 29.7645 85.9634 29.8585C86.1514 30.0936 86.2923 30.3756 86.3863 30.6577C86.4333 30.8457 86.5272 31.0337 86.5742 31.1748C86.7152 31.5979 86.8561 32.0209 86.9971 32.444C87.091 32.7261 87.138 33.0081 87.232 33.2902C87.2789 33.5722 87.3729 33.8543 87.4199 34.1363C87.4669 34.3714 87.5139 34.6064 87.5608 34.8415C87.5608 34.8885 87.6078 34.9825 87.6078 35.0295C87.6548 35.2646 87.7018 35.4996 87.7488 35.7347C87.8897 36.5808 88.0776 37.474 88.1716 38.3672C88.2186 38.6492 88.2656 38.9313 88.2656 39.2133C88.3126 39.4954 88.3595 39.7304 88.3595 40.0125C88.4535 40.8116 88.5475 41.6108 88.6414 42.4099C88.7354 43.3031 88.6884 44.1963 89.0643 45.0424C89.3462 50.6365 89.5811 56.2306 89.863 61.8247C89.9569 64.1281 90.0039 66.4315 90.0509 68.782C90.0039 69.2991 89.9569 69.8162 89.9569 70.3333C90.3328 74.141 90.3798 77.9958 90.3328 81.8035Z" fill="#BF9D56"/>
<path d="M81.1714 24.0775C81.1714 24.0775 80.7955 19.7056 79.2451 17.3082C79.2451 17.3082 81.5003 15.3338 85.1649 16.0859C88.8295 16.8381 88.7825 20.0347 89.2054 22.5732C89.6282 25.1117 89.5812 28.9194 89.5812 28.9194C89.5812 28.9194 88.0778 24.8766 81.1714 24.0775Z" fill="#EAEBF0"/>
</svg>
